<?xml version="1.0" encoding="UTF-8"?>
<svg id="Capa_1" data-name="Capa 1" xmlns="http://www.w3.org/2000/svg" viewBox="0 0 585.95 822.63">
  <defs>
    <style>
      .cls-1 {
        fill: #797979;
      }

      .cls-2 {
        fill: #939393;
      }

      .cls-3, .cls-4, .cls-5, .cls-6 {
        fill: #fff;
      }

      .cls-7, .cls-8, .cls-9, .cls-10, .cls-11, .cls-12, .cls-13 {
        fill: #1d1d1b;
      }

      .cls-7, .cls-8, .cls-5, .cls-14, .cls-15 {
        font-family: WhoopAss, WhoopAss;
      }

      .cls-7, .cls-5, .cls-14, .cls-15 {
        font-size: 48.46px;
      }

      .cls-16, .cls-17, .cls-18, .cls-9, .cls-4, .cls-19, .cls-10, .cls-11, .cls-20, .cls-6, .cls-21, .cls-12 {
        stroke-miterlimit: 10;
      }

      .cls-16, .cls-18, .cls-19, .cls-15 {
        fill: #f39200;
      }

      .cls-16, .cls-9, .cls-4, .cls-20 {
        stroke-width: .1px;
      }

      .cls-16, .cls-19 {
        stroke: #f39200;
      }

      .cls-17 {
        stroke: #000;
      }

      .cls-22 {
        fill: #eb6418;
      }

      .cls-8 {
        font-size: 44.07px;
      }

      .cls-18 {
        stroke: #f9b233;
      }

      .cls-23 {
        fill: #818181;
      }

      .cls-9, .cls-10, .cls-11, .cls-12 {
        stroke: #1d1d1b;
      }

      .cls-4, .cls-6 {
        stroke: #fff;
      }

      .cls-24 {
        fill: #ea572d;
      }

      .cls-25 {
        fill: #737373;
      }

      .cls-10 {
        stroke-width: .17px;
      }

      .cls-14, .cls-20, .cls-21 {
        fill: #e94e1b;
      }

      .cls-26 {
        fill: none;
      }

      .cls-11 {
        stroke-width: .22px;
      }

      .cls-20, .cls-21 {
        stroke: #e94e1b;
      }

      .cls-27 {
        fill: #f08350;
      }

      .cls-28 {
        fill: #ed6f1b;
      }
    </style>
  </defs>
  <circle class="cls-3" cx="286.71" cy="38.44" r="17.7"/>
  <circle class="cls-3" cx="286.66" cy="95.04" r="86"/>
  <path class="cls-26" d="m286.71,11.94c-45.42,0-82.23,37.57-82.23,83.91,0,17.88,5.5,34.44,14.84,48.05l7.03-6.18c-.63-.94-1.24-1.88-1.83-2.85h-.5c-6.13-10.13-9.91-21.84-10.51-34.39h-.1c-.06-1.19-.09-2.39-.09-3.6,0-11.05,2.46-21.53,6.83-30.93h-.21c11.67-25.08,37.08-42.48,66.57-42.48s55.52,17.83,66.99,43.4h.21c4.11,9.16,6.41,19.31,6.41,30,0,2.17-.11,4.32-.3,6.45h.1c-.89,10.18-3.87,19.76-8.49,28.32l5.41,8.02c7.67-12.75,12.1-27.76,12.1-43.82,0-46.34-36.82-83.91-82.23-83.91Z"/>
  <path class="cls-13" d="m204.48,95.86c0-46.34,36.82-83.91,82.23-83.91s82.23,37.57,82.23,83.91c0,16.06-4.43,31.06-12.1,43.82h0s9.21,9.98,9.21,9.98c10.42-15.34,16.51-33.86,16.51-53.8,0-52.94-42.92-95.86-95.86-95.86s-95.86,42.92-95.86,95.86c0,21.23,6.91,40.84,18.59,56.73l9.87-8.67c-9.34-13.61-14.84-30.17-14.84-48.05Z"/>
  <path class="cls-24" d="m353.49,66.89c-11.47-25.58-37.14-43.4-66.99-43.4s-54.9,17.4-66.57,42.48h.21s0,0,0,0l133.35.93Z"/>
  <path class="cls-22" d="m359.82,103.34c.19-2.13.3-4.27.3-6.45,0-10.69-2.3-20.84-6.41-30h-.21s0,0,0,0l-133.35-.93c-4.37,9.4-6.83,19.87-6.83,30.93,0,1.21.03,2.4.09,3.6h.1s0,0,0,0l146.32,2.85Z"/>
  <polygon class="cls-22" points="353.49 66.89 220.14 65.96 220.14 65.96 353.49 66.89 353.49 66.89"/>
  <path class="cls-27" d="m223.86,134.88c.66.92,1.36,1.83,2.07,2.72l3.58-2.65-5.65-.07Z"/>
  <path class="cls-28" d="m229.51,134.95l28.71-25.22,12,8.9,16.48-15.29,21.08,15.29,5.74-6.29,6.33,6.29,7.24-9.94,5.22-5.35,19.12,28.32c4.62-8.56,7.6-18.14,8.49-28.32h-.1s0,0,0,0l-146.32-2.85c.61,12.55,4.38,24.26,10.51,34.39h.5s0,0,0,0l5,.08Z"/>
  <polygon class="cls-28" points="359.82 103.34 213.5 100.49 213.5 100.49 359.82 103.34 359.82 103.34"/>
  <polygon class="cls-28" points="229.51 134.95 224.51 134.87 224.52 134.88 229.51 134.96 229.51 134.95"/>
  <g>
    <path class="cls-13" d="m348.39,136.77h.49c-13.08,20.18-35.77,33.53-61.6,33.53s-47.79-12.93-60.97-32.56l-7.03,6.18c14.87,21.67,39.5,35.86,67.4,35.86,29.68,0,55.68-16.05,70.14-40.1l-5.41-8.02c-.94,1.74-1.95,3.45-3.02,5.11Z"/>
    <path class="cls-13" d="m286.68,191.72c33,0,62.1-16.68,79.34-42.06l-9.21-9.98h0c-14.46,24.05-40.46,40.09-70.14,40.09-27.89,0-52.53-14.19-67.4-35.86l-9.87,8.67c17.45,23.73,45.56,39.13,77.27,39.13Z"/>
    <path class="cls-13" d="m287.28,170.29c25.83,0,48.52-13.35,61.6-33.52h-.49s0,0,0,0l-118.9-1.82-3.16,2.78c13.17,19.63,35.55,32.56,60.97,32.56Z"/>
    <path class="cls-13" d="m327.07,108.69l-7.24,9.94-6.33-6.29-5.74,6.29-21.08-15.29-16.48,15.29-12-8.9-28.71,25.22,118.9,1.82c1.07-1.66,2.08-3.36,3.02-5.11l-19.12-28.32-5.22,5.35Z"/>
  </g>
  <polygon class="cls-3" points="286.66 107.12 277.53 115.47 282.09 120.05 286.81 117.72 288.96 126.17 293.97 120.05 293.97 126.17 298.4 128.51 300.75 122.51 312.49 133.4 310.92 123.82 317.71 122.77 313.01 115.73 308.84 120.26 307.27 121.47 286.66 107.12"/>
  <polygon class="cls-3" points="331.79 107.12 328.4 110.51 311.45 139.68 328.14 126.95 331.79 123.4 331.79 127.47 337.79 125.38 348.41 129.56 331.79 107.12"/>
  <polygon class="cls-3" points="257.48 112.69 239.74 127.82 247.04 127.82 252.52 123.39 257.48 127.82 265.3 119.05 257.48 112.69"/>
  <polygon class="cls-3" points="255.88 137.73 277.53 115.47 282.09 120.05 255.88 137.73"/>
  <text class="cls-8" transform="translate(4.89 810.58) scale(1.16 1)"><tspan x="0" y="0">Onyx Visual production</tspan></text>
  <circle class="cls-3" cx="489.59" cy="39.26" r="17.7"/>
  <circle class="cls-3" cx="489.54" cy="95.86" r="86"/>
  <path class="cls-26" d="m489.59,12.76c-45.42,0-82.23,37.57-82.23,83.91,0,17.88,5.5,34.44,14.84,48.05l7.03-6.18c-.63-.94-1.24-1.88-1.83-2.85h-.5c-6.13-10.13-9.91-21.84-10.51-34.39h-.1c-.06-1.19-.09-2.39-.09-3.6,0-11.05,2.46-21.53,6.83-30.93h-.21c11.67-25.08,37.08-42.48,66.57-42.48s55.52,17.83,66.99,43.4h.21c4.11,9.16,6.41,19.31,6.41,30,0,2.17-.11,4.32-.3,6.45h.1c-.89,10.18-3.87,19.76-8.49,28.32l5.41,8.02c7.67-12.75,12.1-27.76,12.1-43.82,0-46.34-36.82-83.91-82.23-83.91Z"/>
  <path class="cls-12" d="m407.36,96.67c0-46.34,36.82-83.91,82.23-83.91s82.23,37.57,82.23,83.91c0,16.06-4.43,31.06-12.1,43.82h0s9.21,9.98,9.21,9.98c10.42-15.34,16.51-33.86,16.51-53.8,0-52.94-42.92-95.86-95.86-95.86s-95.86,42.92-95.86,95.86c0,21.23,6.91,40.84,18.59,56.73l9.87-8.67c-9.34-13.61-14.84-30.17-14.84-48.05Z"/>
  <path class="cls-24" d="m556.38,67.7c-11.47-25.58-37.14-43.4-66.99-43.4s-54.9,17.4-66.57,42.48h.21s0,0,0,0l133.35.93Z"/>
  <path class="cls-22" d="m562.7,104.15c.19-2.13.3-4.27.3-6.45,0-10.69-2.3-20.84-6.41-30h-.21s0,0,0,0l-133.35-.93c-4.37,9.4-6.83,19.87-6.83,30.93,0,1.21.03,2.4.09,3.6h.1s0,0,0,0l146.32,2.85Z"/>
  <polygon class="cls-22" points="556.38 67.7 423.02 66.78 423.02 66.78 556.38 67.71 556.38 67.7"/>
  <path class="cls-27" d="m426.74,135.7c.66.92,1.36,1.83,2.07,2.72l3.58-2.65-5.65-.07Z"/>
  <path class="cls-28" d="m432.4,135.77l28.71-25.22,12,8.9,16.48-15.29,21.08,15.29,5.74-6.29,6.33,6.29,7.24-9.94,5.22-5.35,19.12,28.32c4.62-8.56,7.6-18.14,8.49-28.32h-.1s0,0,0,0l-146.32-2.85c.61,12.55,4.38,24.26,10.51,34.39h.5s0,0,0,0l5,.08Z"/>
  <polygon class="cls-28" points="562.7 104.15 416.38 101.3 416.38 101.31 562.7 104.16 562.7 104.15"/>
  <polygon class="cls-28" points="432.4 135.77 427.4 135.69 427.4 135.7 432.39 135.78 432.4 135.77"/>
  <g>
    <path class="cls-12" d="m551.27,137.58h.49c-13.08,20.18-35.77,33.53-61.6,33.53s-47.79-12.93-60.97-32.56l-7.03,6.18c14.87,21.67,39.5,35.86,67.4,35.86,29.68,0,55.68-16.05,70.14-40.1l-5.41-8.02c-.94,1.74-1.95,3.45-3.02,5.11Z"/>
    <path class="cls-12" d="m489.57,192.53c33,0,62.1-16.68,79.34-42.06l-9.21-9.98h0c-14.46,24.05-40.46,40.09-70.14,40.09-27.89,0-52.53-14.19-67.4-35.86l-9.87,8.67c17.45,23.73,45.56,39.13,77.27,39.13Z"/>
    <path class="cls-12" d="m490.17,171.11c25.83,0,48.52-13.35,61.6-33.52h-.49s0,0,0,0l-118.9-1.82-3.16,2.78c13.17,19.63,35.55,32.56,60.97,32.56Z"/>
    <path class="cls-12" d="m529.96,109.5l-7.24,9.94-6.33-6.29-5.74,6.29-21.08-15.29-16.48,15.29-12-8.9-28.71,25.22,118.9,1.82c1.07-1.66,2.08-3.36,3.02-5.11l-19.12-28.32-5.22,5.35Z"/>
  </g>
  <polygon class="cls-3" points="489.54 107.94 480.42 116.29 484.98 120.87 489.7 118.54 491.85 126.98 496.85 120.87 496.85 126.98 501.29 129.33 503.63 123.33 515.37 134.21 513.81 124.64 520.59 123.59 515.9 116.55 511.72 121.08 510.16 122.29 489.54 107.94"/>
  <polygon class="cls-3" points="534.68 107.94 531.29 111.33 514.33 140.49 531.03 127.77 534.68 124.22 534.68 128.29 540.68 126.2 551.3 130.37 534.68 107.94"/>
  <polygon class="cls-3" points="460.36 113.51 442.62 128.64 449.93 128.64 455.41 124.21 460.36 128.64 468.19 119.87 460.36 113.51"/>
  <polygon class="cls-3" points="458.77 138.55 480.42 116.29 484.98 120.87 458.77 138.55"/>
  <ellipse class="cls-3" cx="116.99" cy="310.06" rx="15.9" ry="15.79"/>
  <ellipse class="cls-3" cx="116.95" cy="360.54" rx="77.24" ry="76.7"/>
  <path class="cls-26" d="m116.99,286.43c-40.79,0-73.86,33.51-73.86,74.84,0,15.95,4.94,30.71,13.33,42.86l6.32-5.51c-.56-.84-1.12-1.68-1.64-2.54h-.45c-5.51-9.03-8.9-19.48-9.44-30.67h-.09c-.05-1.06-.08-2.13-.08-3.21,0-9.86,2.21-19.2,6.14-27.58h-.19c10.48-22.37,33.31-37.88,59.79-37.88s49.86,15.9,60.17,38.71h.19c3.69,8.17,5.76,17.22,5.76,26.76,0,1.94-.1,3.85-.27,5.75h.09c-.8,9.08-3.47,17.62-7.62,25.26l4.86,7.15c6.89-11.37,10.87-24.75,10.87-39.08,0-41.33-33.07-74.84-73.86-74.84Z"/>
  <path class="cls-18" d="m43.14,361.26c0-41.33,33.07-74.84,73.86-74.84s73.86,33.51,73.86,74.84c0,14.32-3.98,27.7-10.87,39.08h0s8.27,8.9,8.27,8.9c9.36-13.68,14.83-30.2,14.83-47.98,0-47.21-38.55-85.49-86.09-85.49s-86.09,38.27-86.09,85.49c0,18.93,6.2,36.42,16.69,50.59l8.87-7.73c-8.39-12.14-13.33-26.91-13.33-42.86Z"/>
  <g>
    <path class="cls-19" d="m172.39,397.75h.44c-11.75,17.99-32.12,29.9-55.32,29.9s-42.92-11.53-54.76-29.04l-6.32,5.51c13.35,19.33,35.48,31.98,60.53,31.98,26.65,0,50-14.31,62.99-35.76l-4.86-7.15c-.85,1.56-1.75,3.08-2.71,4.55Z"/>
    <path class="cls-19" d="m116.97,446.75c29.64,0,55.77-14.87,71.26-37.51l-8.27-8.9h0c-12.99,21.44-36.34,35.75-62.99,35.75-25.05,0-47.18-12.65-60.53-31.98l-8.87,7.73c15.67,21.16,40.92,34.9,69.4,34.9Z"/>
    <path class="cls-19" d="m117.51,427.65c23.2,0,43.58-11.91,55.32-29.9h-.44s0,0,0,0l-106.79-1.62-2.84,2.48c11.83,17.51,31.93,29.04,54.76,29.04Z"/>
    <path class="cls-19" d="m153.24,372.71l-6.5,8.87-5.68-5.61-5.15,5.61-18.94-13.64-14.8,13.64-10.78-7.94-25.79,22.49,106.79,1.62c.96-1.48,1.87-3,2.71-4.55l-17.17-25.26-4.69,4.77Z"/>
  </g>
  <polygon class="cls-3" points="116.95 371.31 108.75 378.76 112.85 382.84 117.09 380.76 119.02 388.29 123.51 382.84 123.51 388.29 127.5 390.39 129.6 385.04 140.15 394.74 138.74 386.2 144.83 385.27 140.62 378.99 136.87 383.03 135.46 384.11 116.95 371.31"/>
  <polygon class="cls-3" points="157.49 371.31 154.44 374.34 139.21 400.34 154.21 388.99 157.49 385.83 157.49 389.46 162.88 387.6 172.41 391.32 157.49 371.31"/>
  <polygon class="cls-3" points="90.74 376.28 74.81 389.77 81.37 389.77 86.29 385.82 90.74 389.77 97.77 381.95 90.74 376.28"/>
  <polygon class="cls-3" points="89.31 398.61 108.75 378.76 112.85 382.84 89.31 398.61"/>
  <rect class="cls-13" x="270.72" y="269.45" width="196.7" height="205.18"/>
  <ellipse class="cls-13" cx="369.07" cy="322.79" rx="15.9" ry="15.79"/>
  <ellipse class="cls-13" cx="369.03" cy="373.26" rx="77.24" ry="76.7"/>
  <path class="cls-26" d="m369.07,299.16c-40.79,0-73.86,33.51-73.86,74.84,0,15.95,4.94,30.71,13.33,42.86l6.32-5.51c-.56-.84-1.12-1.68-1.64-2.54h-.45c-5.51-9.03-8.9-19.48-9.44-30.67h-.09c-.05-1.06-.08-2.13-.08-3.21,0-9.86,2.21-19.2,6.14-27.58h-.19c10.48-22.37,33.31-37.88,59.79-37.88s49.86,15.9,60.17,38.71h.19c3.69,8.17,5.76,17.22,5.76,26.76,0,1.94-.1,3.85-.27,5.75h.09c-.8,9.08-3.47,17.62-7.62,25.26l4.86,7.15c6.89-11.37,10.87-24.75,10.87-39.08,0-41.33-33.07-74.84-73.86-74.84Z"/>
  <path class="cls-6" d="m295.22,373.99c0-41.33,33.07-74.84,73.86-74.84s73.86,33.51,73.86,74.84c0,14.32-3.98,27.7-10.87,39.08h0s8.27,8.9,8.27,8.9c9.36-13.68,14.83-30.2,14.83-47.98,0-47.21-38.55-85.49-86.09-85.49s-86.09,38.27-86.09,85.49c0,18.93,6.2,36.42,16.69,50.59l8.87-7.73c-8.39-12.14-13.33-26.91-13.33-42.86Z"/>
  <g>
    <path class="cls-6" d="m424.47,410.47h.44c-11.75,17.99-32.12,29.9-55.32,29.9s-42.92-11.53-54.76-29.04l-6.32,5.51c13.35,19.33,35.48,31.98,60.53,31.98,26.65,0,50-14.31,62.99-35.76l-4.86-7.15c-.85,1.56-1.75,3.08-2.71,4.55Z"/>
    <path class="cls-6" d="m369.05,459.48c29.64,0,55.77-14.87,71.26-37.51l-8.27-8.9h0c-12.99,21.44-36.34,35.75-62.99,35.75-25.05,0-47.18-12.65-60.53-31.98l-8.87,7.73c15.67,21.16,40.92,34.9,69.4,34.9Z"/>
    <path class="cls-6" d="m369.59,440.38c23.2,0,43.58-11.91,55.32-29.9h-.44s0,0,0,0l-106.79-1.62-2.84,2.48c11.83,17.51,31.93,29.04,54.76,29.04Z"/>
    <path class="cls-6" d="m405.32,385.43l-6.5,8.87-5.68-5.61-5.15,5.61-18.94-13.64-14.8,13.64-10.78-7.94-25.79,22.49,106.79,1.62c.96-1.48,1.87-3,2.71-4.55l-17.17-25.26-4.69,4.77Z"/>
  </g>
  <polygon class="cls-13" points="369.03 384.04 360.83 391.48 364.93 395.57 369.17 393.49 371.09 401.02 375.59 395.57 375.59 401.02 379.57 403.12 381.68 397.76 392.23 407.47 390.82 398.93 396.91 398 392.7 391.72 388.95 395.75 387.54 396.83 369.03 384.04"/>
  <polygon class="cls-13" points="409.56 384.04 406.52 387.06 391.29 413.07 406.28 401.72 409.56 398.55 409.56 402.18 414.95 400.32 424.49 404.05 409.56 384.04"/>
  <polygon class="cls-13" points="342.82 389.01 326.89 402.5 333.45 402.5 338.37 398.55 342.82 402.5 349.85 394.67 342.82 389.01"/>
  <polygon class="cls-13" points="341.38 411.34 360.83 391.48 364.93 395.57 341.38 411.34"/>
  <circle class="cls-3" cx="114.82" cy="516.3" r="17.7"/>
  <circle class="cls-3" cx="114.77" cy="572.9" r="86"/>
  <path class="cls-26" d="m114.82,489.8c-45.42,0-82.23,37.57-82.23,83.91,0,17.88,5.5,34.44,14.84,48.05l7.03-6.18c-.63-.94-1.24-1.88-1.83-2.85h-.5c-6.13-10.13-9.91-21.84-10.51-34.39h-.1c-.06-1.19-.09-2.39-.09-3.6,0-11.05,2.46-21.53,6.83-30.93h-.21c11.67-25.08,37.08-42.48,66.57-42.48s55.52,17.83,66.99,43.4h.21c4.11,9.16,6.41,19.31,6.41,30,0,2.17-.11,4.32-.3,6.45h.1c-.89,10.18-3.87,19.76-8.49,28.32l5.41,8.02c7.67-12.75,12.1-27.76,12.1-43.82,0-46.34-36.82-83.91-82.23-83.91Z"/>
  <path class="cls-17" d="m32.59,573.71c0-46.34,36.82-83.91,82.23-83.91s82.23,37.57,82.23,83.91c0,16.06-4.43,31.06-12.1,43.82h0s9.21,9.98,9.21,9.98c10.42-15.34,16.51-33.86,16.51-53.8,0-52.94-42.92-95.86-95.86-95.86s-95.86,42.92-95.86,95.86c0,21.23,6.91,40.84,18.59,56.73l9.87-8.67c-9.34-13.61-14.84-30.17-14.84-48.05Z"/>
  <path class="cls-25" d="m181.6,544.74c-11.47-25.58-37.14-43.4-66.99-43.4s-54.9,17.4-66.57,42.48h.21s0,0,0,0l133.35.93Z"/>
  <path class="cls-1" d="m187.93,581.19c.19-2.13.3-4.27.3-6.45,0-10.69-2.3-20.84-6.41-30h-.21s0,0,0,0l-133.35-.93c-4.37,9.4-6.83,19.87-6.83,30.93,0,1.21.03,2.4.09,3.6h.1s0,0,0,0l146.32,2.85Z"/>
  <polygon class="cls-1" points="181.6 544.74 48.25 543.82 48.25 543.82 181.6 544.74 181.6 544.74"/>
  <path class="cls-2" d="m51.97,612.74c.66.92,1.36,1.83,2.07,2.72l3.58-2.65-5.65-.07Z"/>
  <path class="cls-23" d="m57.63,612.81l28.71-25.22,12,8.9,16.48-15.29,21.08,15.29,5.74-6.29,6.33,6.29,7.24-9.94,5.22-5.35,19.12,28.32c4.62-8.56,7.6-18.14,8.49-28.32h-.1s0,0,0,0l-146.32-2.85c.61,12.55,4.38,24.26,10.51,34.39h.5s0,0,0,0l5,.08Z"/>
  <polygon class="cls-23" points="187.93 581.19 41.61 578.34 41.61 578.34 187.93 581.19 187.93 581.19"/>
  <polygon class="cls-23" points="57.63 612.81 52.62 612.73 52.63 612.74 57.62 612.81 57.63 612.81"/>
  <g>
    <path class="cls-17" d="m176.5,614.62h.49c-13.08,20.18-35.77,33.53-61.6,33.53s-47.79-12.93-60.97-32.56l-7.03,6.18c14.87,21.67,39.5,35.86,67.4,35.86,29.68,0,55.68-16.05,70.14-40.1l-5.41-8.02c-.94,1.74-1.95,3.45-3.02,5.11Z"/>
    <path class="cls-17" d="m114.79,669.57c33,0,62.1-16.68,79.34-42.06l-9.21-9.98h0c-14.46,24.05-40.46,40.09-70.14,40.09-27.89,0-52.53-14.19-67.4-35.86l-9.87,8.67c17.45,23.73,45.56,39.13,77.27,39.13Z"/>
    <path class="cls-17" d="m115.4,648.15c25.83,0,48.52-13.35,61.6-33.52h-.49s0,0,0,0l-118.9-1.82-3.16,2.78c13.17,19.63,35.55,32.56,60.97,32.56Z"/>
    <path class="cls-17" d="m155.18,586.54l-7.24,9.94-6.33-6.29-5.74,6.29-21.08-15.29-16.48,15.29-12-8.9-28.71,25.22,118.9,1.82c1.07-1.66,2.08-3.36,3.02-5.11l-19.12-28.32-5.22,5.35Z"/>
  </g>
  <polygon class="cls-3" points="114.77 584.98 105.64 593.32 110.21 597.91 114.93 595.57 117.07 604.02 122.08 597.91 122.08 604.02 126.51 606.37 128.86 600.37 140.6 611.25 139.04 601.67 145.82 600.63 141.12 593.59 136.95 598.11 135.38 599.32 114.77 584.98"/>
  <polygon class="cls-3" points="159.91 584.98 156.51 588.37 139.56 617.53 156.25 604.8 159.91 601.25 159.91 605.32 165.91 603.24 176.53 607.41 159.91 584.98"/>
  <polygon class="cls-3" points="85.59 590.55 67.85 605.68 75.16 605.68 80.63 601.24 85.59 605.68 93.42 596.9 85.59 590.55"/>
  <polygon class="cls-3" points="83.99 615.59 105.64 593.32 110.21 597.91 83.99 615.59"/>
  <text/>
  <ellipse class="cls-3" cx="215.07" cy="680.02" rx="3.56" ry="3.29"/>
  <ellipse class="cls-3" cx="214.15" cy="691.1" rx="17.27" ry="16"/>
  <path class="cls-26" d="m215.07,675.09c-9.12,0-16.52,6.99-16.52,15.61,0,3.33,1.1,6.41,2.98,8.94l1.41-1.15c-.13-.17-.25-.35-.37-.53h-.1c-1.23-1.88-1.99-4.06-2.11-6.4h-.02c-.01-.22-.02-.45-.02-.67,0-2.06.49-4.01,1.37-5.75h-.04c2.34-4.67,7.45-7.9,13.37-7.9s11.15,3.32,13.46,8.08h.04c.83,1.71,1.29,3.59,1.29,5.58,0,.4-.02.8-.06,1.2h.02c-.18,1.9-.78,3.68-1.7,5.27l1.09,1.49c1.54-2.37,2.43-5.16,2.43-8.15,0-8.62-7.4-15.61-16.52-15.61Z"/>
  <path class="cls-11" d="m198.56,690.71c0-8.62,7.4-15.61,16.52-15.61s16.52,6.99,16.52,15.61c0,2.99-.89,5.78-2.43,8.15h0s1.85,1.86,1.85,1.86c2.09-2.85,3.32-6.3,3.32-10.01,0-9.85-8.62-17.84-19.25-17.84s-19.25,7.99-19.25,17.84c0,3.95,1.39,7.6,3.73,10.56l1.98-1.61c-1.88-2.53-2.98-5.61-2.98-8.94Z"/>
  <g>
    <path class="cls-11" d="m227.46,698.32h.1c-2.63,3.75-7.18,6.24-12.37,6.24s-9.6-2.41-12.25-6.06l-1.41,1.15c2.99,4.03,7.93,6.67,13.54,6.67,5.96,0,11.18-2.99,14.09-7.46l-1.09-1.49c-.19.32-.39.64-.61.95Z"/>
    <path class="cls-11" d="m215.07,708.54c6.63,0,12.47-3.1,15.94-7.83l-1.85-1.86h0c-2.9,4.47-8.13,7.46-14.09,7.46-5.6,0-10.55-2.64-13.54-6.67l-1.98,1.61c3.5,4.42,9.15,7.28,15.52,7.28Z"/>
    <path class="cls-11" d="m215.19,704.56c5.19,0,9.75-2.48,12.37-6.24h-.1s0,0,0,0l-23.88-.34-.63.52c2.65,3.65,7.14,6.06,12.25,6.06Z"/>
    <path class="cls-11" d="m223.18,693.1l-1.45,1.85-1.27-1.17-1.15,1.17-4.23-2.85-3.31,2.85-2.41-1.66-5.77,4.69,23.88.34c.22-.31.42-.63.61-.95l-3.84-5.27-1.05,1Z"/>
  </g>
  <polygon class="cls-3" points="215.06 692.8 213.23 694.36 214.15 695.21 215.1 694.78 215.53 696.35 216.53 695.21 216.53 696.35 217.42 696.78 217.89 695.67 220.25 697.69 219.94 695.91 221.3 695.72 220.36 694.41 219.52 695.25 219.2 695.47 215.06 692.8"/>
  <polygon class="cls-3" points="224.13 692.8 223.45 693.44 220.04 698.86 223.4 696.49 224.13 695.83 224.13 696.59 225.34 696.2 227.47 696.98 224.13 692.8"/>
  <polygon class="cls-3" points="209.2 693.84 205.64 696.66 207.11 696.66 208.21 695.83 209.2 696.66 210.77 695.02 209.2 693.84"/>
  <polygon class="cls-3" points="208.88 698.5 213.23 694.36 214.15 695.21 208.88 698.5"/>
  <ellipse class="cls-3" cx="18.96" cy="786.08" rx="2.68" ry="2.63"/>
  <ellipse class="cls-3" cx="18.96" cy="794.5" rx="13.04" ry="12.79"/>
  <path class="cls-26" d="m18.96,782.14c-6.88,0-12.46,5.59-12.46,12.48,0,2.66.83,5.12,2.25,7.15l1.07-.92c-.1-.14-.19-.28-.28-.42h-.08c-.93-1.51-1.5-3.25-1.59-5.12h-.02c0-.18-.01-.36-.01-.54,0-1.64.37-3.2,1.04-4.6h-.03c1.77-3.73,5.62-6.32,10.09-6.32s8.41,2.65,10.15,6.46h.03c.62,1.36.97,2.87.97,4.46,0,.32-.02.64-.05.96h.02c-.13,1.52-.59,2.94-1.29,4.21l.82,1.19c1.16-1.9,1.83-4.13,1.83-6.52,0-6.89-5.58-12.48-12.46-12.48Z"/>
  <path class="cls-10" d="m6.5,794.63c0-6.89,5.58-12.48,12.46-12.48s12.46,5.59,12.46,12.48c0,2.39-.67,4.62-1.83,6.52h0s1.4,1.49,1.4,1.49c1.58-2.28,2.5-5.04,2.5-8,0-7.88-6.5-14.26-14.53-14.26s-14.53,6.38-14.53,14.26c0,3.16,1.05,6.08,2.82,8.44l1.5-1.29c-1.42-2.03-2.25-4.49-2.25-7.15Z"/>
  <g>
    <path class="cls-10" d="m28.31,800.71h.07c-1.98,3-5.42,4.99-9.34,4.99s-7.24-1.92-9.24-4.84l-1.07.92c2.25,3.22,5.99,5.33,10.22,5.33,4.5,0,8.44-2.39,10.63-5.96l-.82-1.19c-.14.26-.29.51-.46.76Z"/>
    <path class="cls-10" d="m18.96,808.89c5,0,9.41-2.48,12.03-6.26l-1.4-1.48h0c-2.19,3.58-6.13,5.96-10.63,5.96-4.23,0-7.96-2.11-10.22-5.33l-1.5,1.29c2.64,3.53,6.91,5.82,11.71,5.82Z"/>
    <path class="cls-10" d="m19.05,805.7c3.91,0,7.35-1.99,9.34-4.99h-.07s0,0,0,0l-18.02-.27-.48.41c2,2.92,5.39,4.84,9.24,4.84Z"/>
    <path class="cls-10" d="m25.08,796.53l-1.1,1.48-.96-.94-.87.94-3.2-2.27-2.5,2.27-1.82-1.32-4.35,3.75,18.02.27c.16-.25.31-.5.46-.76l-2.9-4.21-.79.8Z"/>
  </g>
  <polygon class="cls-3" points="18.96 796.3 17.57 797.54 18.27 798.22 18.98 797.88 19.31 799.13 20.06 798.22 20.06 799.13 20.74 799.48 21.09 798.59 22.87 800.21 22.63 798.78 23.66 798.63 22.95 797.58 22.32 798.26 22.08 798.44 18.96 796.3"/>
  <polygon class="cls-3" points="25.8 796.3 25.28 796.81 22.71 801.14 25.24 799.25 25.8 798.72 25.8 799.33 26.71 799.02 28.32 799.64 25.8 796.3"/>
  <polygon class="cls-3" points="14.53 797.13 11.85 799.38 12.95 799.38 13.78 798.72 14.53 799.38 15.72 798.08 14.53 797.13"/>
  <polygon class="cls-3" points="14.29 800.85 17.57 797.54 18.27 798.22 14.29 800.85"/>
  <g>
    <text class="cls-15" transform="translate(259.88 756.21) scale(1.02 1)"><tspan x="0" y="0">OVP</tspan></text>
    <ellipse class="cls-3" cx="274.9" cy="732.54" rx="1.49" ry="1.57"/>
    <ellipse class="cls-3" cx="274.51" cy="737.82" rx="7.25" ry="7.63"/>
    <path class="cls-26" d="m274.9,730.19c-3.83,0-6.94,3.33-6.94,7.44,0,1.59.46,3.05,1.25,4.26l.59-.55c-.05-.08-.1-.17-.15-.25h-.04c-.52-.9-.84-1.94-.89-3.05h0c0-.11,0-.21,0-.32,0-.98.21-1.91.58-2.74h-.02c.98-2.22,3.13-3.77,5.61-3.77s4.68,1.58,5.65,3.85h.02c.35.81.54,1.71.54,2.66,0,.19,0,.38-.03.57h0c-.07.9-.33,1.75-.72,2.51l.46.71c.65-1.13,1.02-2.46,1.02-3.89,0-4.11-3.1-7.44-6.94-7.44Z"/>
    <path class="cls-16" d="m267.97,737.64c0-4.11,3.1-7.44,6.94-7.44s6.94,3.33,6.94,7.44c0,1.42-.37,2.75-1.02,3.89h0s.78.89.78.89c.88-1.36,1.39-3,1.39-4.77,0-4.69-3.62-8.5-8.08-8.5s-8.08,3.81-8.08,8.5c0,1.88.58,3.62,1.57,5.03l.83-.77c-.79-1.21-1.25-2.68-1.25-4.26Z"/>
    <g>
      <path class="cls-16" d="m280.11,741.26h.04c-1.1,1.79-3.02,2.97-5.19,2.97s-4.03-1.15-5.14-2.89l-.59.55c1.25,1.92,3.33,3.18,5.68,3.18,2.5,0,4.7-1.42,5.91-3.56l-.46-.71c-.08.15-.16.31-.25.45Z"/>
      <path class="cls-16" d="m274.9,746.14c2.78,0,5.24-1.48,6.69-3.73l-.78-.88h0c-1.22,2.13-3.41,3.56-5.91,3.56-2.35,0-4.43-1.26-5.68-3.18l-.83.77c1.47,2.1,3.84,3.47,6.52,3.47Z"/>
      <path class="cls-16" d="m274.95,744.24c2.18,0,4.09-1.18,5.19-2.97h-.04s0,0,0,0l-10.03-.16-.27.25c1.11,1.74,3,2.89,5.14,2.89Z"/>
      <path class="cls-16" d="m278.31,738.77l-.61.88-.53-.56-.48.56-1.78-1.36-1.39,1.36-1.01-.79-2.42,2.24,10.03.16c.09-.15.18-.3.25-.45l-1.61-2.51-.44.47Z"/>
    </g>
    <polygon class="cls-3" points="274.9 738.63 274.13 739.38 274.51 739.78 274.91 739.57 275.09 740.32 275.52 739.78 275.52 740.32 275.89 740.53 276.09 740 277.08 740.96 276.95 740.12 277.52 740.02 277.12 739.4 276.77 739.8 276.64 739.91 274.9 738.63"/>
    <polygon class="cls-3" points="278.71 738.63 278.42 738.94 276.99 741.52 278.4 740.39 278.71 740.08 278.71 740.44 279.21 740.25 280.11 740.62 278.71 738.63"/>
    <polygon class="cls-3" points="272.44 739.13 270.94 740.47 271.56 740.47 272.02 740.08 272.44 740.47 273.1 739.69 272.44 739.13"/>
    <polygon class="cls-3" points="272.3 741.35 274.13 739.38 274.51 739.78 272.3 741.35"/>
  </g>
  <ellipse class="cls-3" cx="384.97" cy="524.08" rx="15.9" ry="15.79"/>
  <ellipse class="cls-3" cx="384.93" cy="574.56" rx="77.24" ry="76.7"/>
  <path class="cls-26" d="m384.97,500.45c-40.79,0-73.86,33.51-73.86,74.84,0,15.95,4.94,30.71,13.33,42.86l6.32-5.51c-.56-.84-1.12-1.68-1.64-2.54h-.45c-5.51-9.03-8.9-19.48-9.44-30.67h-.09c-.05-1.06-.08-2.13-.08-3.21,0-9.86,2.21-19.2,6.14-27.58h-.19c10.48-22.37,33.31-37.88,59.79-37.88s49.86,15.9,60.17,38.71h.19c3.69,8.17,5.76,17.22,5.76,26.76,0,1.94-.1,3.85-.27,5.75h.09c-.8,9.08-3.47,17.62-7.62,25.26l4.86,7.15c6.89-11.37,10.87-24.75,10.87-39.08,0-41.33-33.07-74.84-73.86-74.84Z"/>
  <path class="cls-21" d="m311.11,575.29c0-41.33,33.07-74.84,73.86-74.84s73.86,33.51,73.86,74.84c0,14.32-3.98,27.7-10.87,39.08h0s8.27,8.9,8.27,8.9c9.36-13.68,14.83-30.2,14.83-47.98,0-47.21-38.55-85.49-86.09-85.49s-86.09,38.27-86.09,85.49c0,18.93,6.2,36.42,16.69,50.59l8.87-7.73c-8.39-12.14-13.33-26.91-13.33-42.86Z"/>
  <g>
    <path class="cls-21" d="m440.37,611.77h.44c-11.75,17.99-32.12,29.9-55.32,29.9s-42.92-11.53-54.76-29.04l-6.32,5.51c13.35,19.33,35.48,31.98,60.53,31.98,26.65,0,50-14.31,62.99-35.76l-4.86-7.15c-.85,1.56-1.75,3.08-2.71,4.55Z"/>
    <path class="cls-21" d="m384.95,660.78c29.64,0,55.77-14.87,71.26-37.51l-8.27-8.9h0c-12.99,21.44-36.34,35.75-62.99,35.75-25.05,0-47.18-12.65-60.53-31.98l-8.87,7.73c15.67,21.16,40.92,34.9,69.4,34.9Z"/>
    <path class="cls-21" d="m385.49,641.67c23.2,0,43.58-11.91,55.32-29.9h-.44s0,0,0,0l-106.79-1.62-2.84,2.48c11.83,17.51,31.93,29.04,54.76,29.04Z"/>
    <path class="cls-21" d="m421.22,586.73l-6.5,8.87-5.68-5.61-5.15,5.61-18.94-13.64-14.8,13.64-10.78-7.94-25.79,22.49,106.79,1.62c.96-1.48,1.87-3,2.71-4.55l-17.17-25.26-4.69,4.77Z"/>
  </g>
  <polygon class="cls-3" points="384.93 585.33 376.73 592.78 380.83 596.86 385.07 594.78 386.99 602.32 391.49 596.86 391.49 602.32 395.47 604.41 397.58 599.06 408.13 608.77 406.72 600.22 412.81 599.29 408.59 593.01 404.85 597.05 403.44 598.13 384.93 585.33"/>
  <polygon class="cls-3" points="425.46 585.33 422.42 588.36 407.19 614.37 422.18 603.01 425.46 599.85 425.46 603.48 430.85 601.62 440.39 605.34 425.46 585.33"/>
  <polygon class="cls-3" points="358.72 590.3 342.79 603.8 349.35 603.8 354.27 599.84 358.72 603.8 365.75 595.97 358.72 590.3"/>
  <polygon class="cls-3" points="357.28 612.63 376.73 592.78 380.83 596.86 357.28 612.63"/>
  <g>
    <text class="cls-14" transform="translate(365.18 755.95) scale(1.02 1)"><tspan x="0" y="0">OVP</tspan></text>
    <ellipse class="cls-3" cx="380.2" cy="732.29" rx="1.49" ry="1.57"/>
    <ellipse class="cls-3" cx="379.81" cy="737.56" rx="7.25" ry="7.63"/>
    <path class="cls-26" d="m380.2,729.94c-3.83,0-6.94,3.33-6.94,7.44,0,1.59.46,3.05,1.25,4.26l.59-.55c-.05-.08-.1-.17-.15-.25h-.04c-.52-.9-.84-1.94-.89-3.05h0c0-.11,0-.21,0-.32,0-.98.21-1.91.58-2.74h-.02c.98-2.22,3.13-3.77,5.61-3.77s4.68,1.58,5.65,3.85h.02c.35.81.54,1.71.54,2.66,0,.19,0,.38-.03.57h0c-.07.9-.33,1.75-.72,2.51l.46.71c.65-1.13,1.02-2.46,1.02-3.89,0-4.11-3.1-7.44-6.94-7.44Z"/>
    <path class="cls-20" d="m373.26,737.38c0-4.11,3.1-7.44,6.94-7.44s6.94,3.33,6.94,7.44c0,1.42-.37,2.75-1.02,3.89h0s.78.89.78.89c.88-1.36,1.39-3,1.39-4.77,0-4.69-3.62-8.5-8.08-8.5s-8.08,3.81-8.08,8.5c0,1.88.58,3.62,1.57,5.03l.83-.77c-.79-1.21-1.25-2.68-1.25-4.26Z"/>
    <g>
      <path class="cls-20" d="m385.4,741.01h.04c-1.1,1.79-3.02,2.97-5.19,2.97s-4.03-1.15-5.14-2.89l-.59.55c1.25,1.92,3.33,3.18,5.68,3.18,2.5,0,4.7-1.42,5.91-3.56l-.46-.71c-.08.15-.16.31-.25.45Z"/>
      <path class="cls-20" d="m380.2,745.88c2.78,0,5.24-1.48,6.69-3.73l-.78-.88h0c-1.22,2.13-3.41,3.56-5.91,3.56-2.35,0-4.43-1.26-5.68-3.18l-.83.77c1.47,2.1,3.84,3.47,6.52,3.47Z"/>
      <path class="cls-20" d="m380.25,743.98c2.18,0,4.09-1.18,5.19-2.97h-.04s0,0,0,0l-10.03-.16-.27.25c1.11,1.74,3,2.89,5.14,2.89Z"/>
      <path class="cls-20" d="m383.6,738.52l-.61.88-.53-.56-.48.56-1.78-1.36-1.39,1.36-1.01-.79-2.42,2.24,10.03.16c.09-.15.18-.3.25-.45l-1.61-2.51-.44.47Z"/>
    </g>
    <polygon class="cls-3" points="380.19 738.38 379.42 739.12 379.81 739.52 380.21 739.32 380.39 740.07 380.81 739.52 380.81 740.07 381.18 740.28 381.38 739.74 382.37 740.71 382.24 739.86 382.81 739.77 382.42 739.14 382.06 739.54 381.93 739.65 380.19 738.38"/>
    <polygon class="cls-3" points="384 738.38 383.71 738.68 382.28 741.26 383.69 740.14 384 739.82 384 740.18 384.51 740 385.4 740.37 384 738.38"/>
    <polygon class="cls-3" points="377.73 738.87 376.24 740.21 376.85 740.21 377.32 739.82 377.73 740.21 378.39 739.44 377.73 738.87"/>
    <polygon class="cls-3" points="377.6 741.09 379.42 739.12 379.81 739.52 377.6 741.09"/>
  </g>
  <g>
    <text class="cls-7" transform="translate(148 756.48) scale(1.02 1)"><tspan x="0" y="0">OVP</tspan></text>
    <ellipse class="cls-3" cx="163.02" cy="732.82" rx="1.49" ry="1.57"/>
    <ellipse class="cls-3" cx="162.63" cy="738.09" rx="7.25" ry="7.63"/>
    <path class="cls-26" d="m163.02,730.47c-3.83,0-6.94,3.33-6.94,7.44,0,1.59.46,3.05,1.25,4.26l.59-.55c-.05-.08-.1-.17-.15-.25h-.04c-.52-.9-.84-1.94-.89-3.05h0c0-.11,0-.21,0-.32,0-.98.21-1.91.58-2.74h-.02c.98-2.22,3.13-3.77,5.61-3.77s4.68,1.58,5.65,3.85h.02c.35.81.54,1.71.54,2.66,0,.19,0,.38-.03.57h0c-.07.9-.33,1.75-.72,2.51l.46.71c.65-1.13,1.02-2.46,1.02-3.89,0-4.11-3.1-7.44-6.94-7.44Z"/>
    <path class="cls-9" d="m156.08,737.91c0-4.11,3.1-7.44,6.94-7.44s6.94,3.33,6.94,7.44c0,1.42-.37,2.75-1.02,3.89h0s.78.89.78.89c.88-1.36,1.39-3,1.39-4.77,0-4.69-3.62-8.5-8.08-8.5s-8.08,3.81-8.08,8.5c0,1.88.58,3.62,1.57,5.03l.83-.77c-.79-1.21-1.25-2.68-1.25-4.26Z"/>
    <g>
      <path class="cls-9" d="m168.22,741.54h.04c-1.1,1.79-3.02,2.97-5.19,2.97s-4.03-1.15-5.14-2.89l-.59.55c1.25,1.92,3.33,3.18,5.68,3.18,2.5,0,4.7-1.42,5.91-3.56l-.46-.71c-.08.15-.16.31-.25.45Z"/>
      <path class="cls-9" d="m163.02,746.41c2.78,0,5.24-1.48,6.69-3.73l-.78-.88h0c-1.22,2.13-3.41,3.56-5.91,3.56-2.35,0-4.43-1.26-5.68-3.18l-.83.77c1.47,2.1,3.84,3.47,6.52,3.47Z"/>
      <path class="cls-9" d="m163.07,744.51c2.18,0,4.09-1.18,5.19-2.97h-.04s0,0,0,0l-10.03-.16-.27.25c1.11,1.74,3,2.89,5.14,2.89Z"/>
      <path class="cls-9" d="m166.42,739.05l-.61.88-.53-.56-.48.56-1.78-1.36-1.39,1.36-1.01-.79-2.42,2.24,10.03.16c.09-.15.18-.3.25-.45l-1.61-2.51-.44.47Z"/>
    </g>
    <polygon class="cls-3" points="163.01 738.91 162.24 739.65 162.63 740.05 163.03 739.85 163.21 740.6 163.63 740.05 163.63 740.6 164 740.8 164.2 740.27 165.19 741.24 165.06 740.39 165.63 740.3 165.24 739.67 164.88 740.07 164.75 740.18 163.01 738.91"/>
    <polygon class="cls-3" points="166.82 738.91 166.53 739.21 165.1 741.79 166.51 740.67 166.82 740.35 166.82 740.71 167.33 740.53 168.22 740.9 166.82 738.91"/>
    <polygon class="cls-3" points="160.55 739.4 159.06 740.74 159.67 740.74 160.13 740.35 160.55 740.74 161.21 739.96 160.55 739.4"/>
    <polygon class="cls-3" points="160.42 741.62 162.24 739.65 162.63 740.05 160.42 741.62"/>
  </g>
  <rect class="cls-9" x="21.65" y="718.59" width="96.91" height="44.48"/>
  <g>
    <text class="cls-5" transform="translate(30.12 759.49) scale(1.02 1)"><tspan x="0" y="0">OVP</tspan></text>
    <ellipse class="cls-13" cx="45.15" cy="735.83" rx="1.49" ry="1.57"/>
    <ellipse class="cls-13" cx="44.76" cy="741.11" rx="7.25" ry="7.63"/>
    <path class="cls-26" d="m45.15,733.48c-3.83,0-6.94,3.33-6.94,7.44,0,1.59.46,3.05,1.25,4.26l.59-.55c-.05-.08-.1-.17-.15-.25h-.04c-.52-.9-.84-1.94-.89-3.05h0c0-.11,0-.21,0-.32,0-.98.21-1.91.58-2.74h-.02c.98-2.22,3.13-3.77,5.61-3.77s4.68,1.58,5.65,3.85h.02c.35.81.54,1.71.54,2.66,0,.19,0,.38-.03.57h0c-.07.9-.33,1.75-.72,2.51l.46.71c.65-1.13,1.02-2.46,1.02-3.89,0-4.11-3.1-7.44-6.94-7.44Z"/>
    <path class="cls-4" d="m38.21,740.92c0-4.11,3.1-7.44,6.94-7.44s6.94,3.33,6.94,7.44c0,1.42-.37,2.75-1.02,3.89h0s.78.89.78.89c.88-1.36,1.39-3,1.39-4.77,0-4.69-3.62-8.5-8.08-8.5s-8.08,3.81-8.08,8.5c0,1.88.58,3.62,1.57,5.03l.83-.77c-.79-1.21-1.25-2.68-1.25-4.26Z"/>
    <g>
      <path class="cls-4" d="m50.35,744.55h.04c-1.1,1.79-3.02,2.97-5.19,2.97s-4.03-1.15-5.14-2.89l-.59.55c1.25,1.92,3.33,3.18,5.68,3.18,2.5,0,4.7-1.42,5.91-3.56l-.46-.71c-.08.15-.16.31-.25.45Z"/>
      <path class="cls-4" d="m45.14,749.42c2.78,0,5.24-1.48,6.69-3.73l-.78-.88h0c-1.22,2.13-3.41,3.56-5.91,3.56-2.35,0-4.43-1.26-5.68-3.18l-.83.77c1.47,2.1,3.84,3.47,6.52,3.47Z"/>
      <path class="cls-4" d="m45.19,747.52c2.18,0,4.09-1.18,5.19-2.97h-.04s0,0,0,0l-10.03-.16-.27.25c1.11,1.74,3,2.89,5.14,2.89Z"/>
      <path class="cls-4" d="m48.55,742.06l-.61.88-.53-.56-.48.56-1.78-1.36-1.39,1.36-1.01-.79-2.42,2.24,10.03.16c.09-.15.18-.3.25-.45l-1.61-2.51-.44.47Z"/>
    </g>
    <polygon class="cls-13" points="45.14 741.92 44.37 742.66 44.76 743.07 45.15 742.86 45.34 743.61 45.76 743.07 45.76 743.61 46.13 743.82 46.33 743.29 47.32 744.25 47.19 743.4 47.76 743.31 47.36 742.68 47.01 743.09 46.88 743.19 45.14 741.92"/>
    <polygon class="cls-13" points="48.95 741.92 48.66 742.22 47.23 744.81 48.64 743.68 48.95 743.36 48.95 743.73 49.45 743.54 50.35 743.91 48.95 741.92"/>
    <polygon class="cls-13" points="42.68 742.41 41.18 743.76 41.8 743.76 42.26 743.36 42.68 743.76 43.34 742.98 42.68 742.41"/>
    <polygon class="cls-13" points="42.55 744.64 44.37 742.66 44.76 743.07 42.55 744.64"/>
  </g>
</svg>